<?xml version="1.0" standalone="no"?>
<!DOCTYPE svg PUBLIC "-//W3C//DTD SVG 20010904//EN"
 "http://www.w3.org/TR/2001/REC-SVG-20010904/DTD/svg10.dtd">
<svg version="1.0" xmlns="http://www.w3.org/2000/svg"
 width="355.000000pt" height="499.000000pt" viewBox="0 0 355.000000 499.000000"
 preserveAspectRatio="xMidYMid meet">

<g transform="translate(0.000000,499.000000) scale(0.100000,-0.100000)"
fill="#000000" stroke="none">
<path d="M1844 4861 c-62 -16 -123 -53 -169 -102 -48 -51 -84 -118 -85 -155 0
-16 -18 -30 -77 -59 -143 -70 -264 -221 -303 -380 -15 -59 -21 -219 -10 -255
5 -14 8 -18 9 -10 1 8 12 39 26 69 21 45 27 51 40 41 8 -7 15 -24 15 -37 0
-22 -2 -24 -15 -13 -15 13 -19 8 -16 -22 1 -10 -4 -18 -12 -18 -10 0 -20 -19
-28 -50 -15 -57 -23 -50 -34 28 -9 64 -24 67 -74 14 -107 -112 -88 -377 31
-438 l30 -16 -34 -36 c-78 -82 -152 -222 -182 -343 -9 -36 -19 -108 -23 -160
l-6 -94 -64 -69 c-35 -38 -71 -82 -81 -98 -15 -26 -21 -28 -77 -28 -73 0 -121
-22 -152 -69 l-23 -34 0 -498 0 -499 -40 -20 c-60 -30 -129 -106 -164 -180
-28 -59 -31 -74 -31 -160 0 -87 3 -101 32 -161 37 -75 85 -128 154 -171 l49
-30 0 -201 c0 -111 5 -219 10 -239 16 -56 68 -117 130 -152 l55 -31 1025 0
1025 0 55 31 c62 35 114 96 130 152 5 20 10 128 10 239 l0 201 49 30 c69 43
117 96 154 171 29 60 32 74 32 161 0 86 -3 101 -32 162 -35 74 -102 147 -164
179 l-39 19 0 499 0 498 -23 34 c-31 47 -79 69 -152 69 -56 0 -62 2 -77 28 -9
15 -45 59 -81 97 l-64 70 -6 96 c-14 192 -78 353 -195 489 l-42 49 29 15 c118
61 136 327 30 438 -49 52 -65 50 -73 -9 -13 -88 -17 -92 -36 -33 -9 30 -22 54
-28 53 -7 -2 -12 8 -12 22 0 26 -15 34 -23 13 -8 -22 -15 -4 -10 24 9 45 29
41 57 -12 14 -27 26 -58 27 -67 0 -10 5 -4 10 12 5 17 7 71 5 120 -11 254
-178 479 -403 546 -24 7 -43 16 -43 20 0 5 23 27 51 49 48 38 54 40 119 40 38
0 80 -4 94 -10 21 -8 24 -7 19 7 -5 13 -1 15 20 9 21 -5 25 -3 21 9 -7 18 0
19 27 5 11 -7 19 -7 19 -1 0 12 -80 81 -94 81 -6 0 -43 16 -83 36 -76 37 -151
50 -209 35z m-25 -568 l20 -28 1 25 0 25 20 -25 c16 -20 20 -22 20 -7 0 24 13
21 40 -10 22 -25 24 -26 31 -7 6 17 9 15 23 -16 8 -19 15 -27 16 -17 0 21 30
23 30 2 0 -10 7 -15 18 -13 11 2 18 -5 20 -21 3 -19 6 -21 13 -10 8 12 12 11
23 -3 7 -10 18 -18 25 -18 6 0 11 -9 11 -20 0 -13 5 -18 15 -14 9 4 18 -1 22
-12 3 -11 12 -22 19 -26 7 -5 10 -17 7 -28 -4 -16 -2 -19 11 -14 24 9 21 -29
-4 -51 -20 -18 -20 -17 -20 8 0 14 -4 29 -10 32 -5 3 -10 15 -10 26 0 21 -20
27 -20 7 -1 -7 -7 1 -15 17 -7 17 -14 23 -15 15 -1 -8 -6 1 -12 20 l-10 35
-13 -25 -14 -25 -7 33 c-6 29 -8 30 -19 15 -11 -15 -13 -13 -21 18 l-8 34 -6
-30 -7 -30 -16 35 c-13 29 -17 32 -23 17 -6 -16 -10 -14 -36 15 l-29 33 4 -30
5 -30 -24 28 c-16 19 -24 23 -24 13 0 -24 -15 -19 -30 9 -12 22 -20 25 -69 25
-48 0 -58 -4 -78 -27 -20 -25 -22 -26 -23 -8 0 17 -3 16 -25 -10 l-24 -30 -1
30 0 30 -27 -39 c-27 -37 -28 -38 -32 -15 -3 22 -4 22 -22 -11 l-18 -35 -1 29
c0 32 -15 26 -22 -9 -2 -12 -10 -19 -21 -17 -12 2 -17 -4 -17 -20 -1 -21 -2
-22 -14 -5 -18 23 -24 22 -28 -5 -2 -13 -9 -22 -16 -21 -6 2 -12 -7 -12 -18 0
-18 -3 -19 -15 -9 -12 10 -15 7 -21 -14 -5 -21 -9 -24 -20 -15 -18 14 -18 36
-1 46 8 4 16 16 20 26 3 9 13 17 22 17 8 0 15 6 15 13 0 14 40 42 56 39 7 -1
14 8 18 20 5 19 8 21 16 8 8 -13 10 -13 10 2 0 23 18 32 35 18 12 -10 15 -9
15 3 0 20 20 33 29 18 5 -7 15 -3 32 15 l24 26 6 -24 6 -23 13 28 c15 30 30
36 30 10 0 -14 3 -13 20 5 16 17 32 22 70 22 41 0 51 -4 69 -27z m-509 -252
c5 -11 10 -27 10 -35 0 -14 -3 -14 -20 -4 -11 7 -20 23 -20 35 0 28 16 30 30
4z m324 -284 c22 -12 41 -27 43 -33 2 -7 -18 -22 -44 -35 -66 -32 -143 -32
-202 1 -24 14 -44 29 -44 35 0 5 20 20 43 32 59 31 150 31 204 0z m450 -6 l39
-24 -23 -19 c-33 -27 -124 -51 -163 -43 -49 10 -118 46 -114 59 2 6 21 21 43
34 54 32 161 28 218 -7z m-843 -188 c30 -50 124 -148 165 -174 18 -11 54 -22
81 -24 42 -4 60 1 137 39 73 36 93 42 108 32 13 -8 23 -8 36 1 15 9 33 4 98
-28 135 -67 189 -61 288 32 36 33 79 82 96 109 18 28 35 48 39 45 4 -2 3 -37
-1 -78 -8 -65 -6 -82 13 -133 31 -86 43 -145 35 -185 -3 -19 -40 -89 -82 -154
-106 -168 -142 -244 -164 -344 -11 -47 -20 -92 -20 -98 0 -10 86 -13 399 -13
398 0 398 0 432 -23 19 -13 39 -38 46 -57 9 -26 12 -291 12 -1051 1 -1157 6
-1088 -79 -1171 -85 -82 -22 -78 -1130 -78 -1108 0 -1045 -4 -1130 78 -85 83
-80 13 -80 1174 0 1122 -3 1068 62 1108 32 19 49 20 431 20 311 0 397 3 397
13 0 6 -9 51 -20 98 -22 102 -53 166 -161 337 -43 69 -82 141 -85 161 -8 40 3
98 35 185 21 57 23 109 5 194 -7 34 12 26 37 -15z"/>
<path d="M1485 3720 c-3 -6 0 -13 8 -16 25 -9 90 0 95 14 5 15 -94 17 -103 2z"/>
<path d="M1915 3720 c-3 -5 0 -13 8 -16 23 -8 102 0 102 11 0 14 -102 19 -110
5z"/>
<path d="M1237 3488 c4 -33 -3 -67 -26 -133 -48 -139 -46 -152 66 -323 75
-115 130 -228 148 -303 34 -142 39 -153 75 -189 115 -115 304 -131 450 -39 61
38 87 76 105 151 29 119 37 143 75 218 20 42 70 127 110 190 91 142 95 163 50
291 -25 74 -31 103 -26 138 l6 45 -65 -71 c-82 -90 -153 -129 -220 -120 -24 4
-78 23 -119 44 -65 32 -79 36 -96 25 -16 -9 -24 -10 -39 0 -16 10 -32 6 -96
-25 -42 -21 -96 -40 -120 -44 -66 -9 -138 30 -219 118 l-64 71 5 -44z m623
-228 c105 -14 130 -24 130 -50 0 -33 -40 -40 -240 -40 -104 0 -200 4 -214 10
-27 10 -36 43 -15 55 15 10 221 43 239 39 8 -1 53 -8 100 -14z"/>
<path d="M1612 3235 c-78 -13 -95 -21 -72 -35 19 -13 401 -13 420 0 23 14 6
22 -82 36 -98 16 -167 16 -266 -1z"/>
<path d="M814 2198 c-25 -12 -44 -48 -44 -84 0 -28 49 -84 73 -84 9 0 19 -18
26 -47 16 -64 90 -216 134 -277 240 -331 655 -464 1042 -335 243 81 461 286
553 520 16 41 33 89 37 107 4 19 13 32 22 32 24 0 73 56 73 84 0 59 -38 96
-101 96 -73 0 -108 -102 -53 -154 26 -23 26 -26 15 -72 -54 -212 -232 -424
-446 -531 -394 -197 -874 -73 -1125 292 -41 59 -95 176 -111 239 -11 46 -11
49 15 72 56 53 19 155 -56 153 -18 0 -43 -5 -54 -11z"/>
</g>
</svg>
